<?xml version="1.0" encoding="UTF-8"?>
<!DOCTYPE svg PUBLIC "-//W3C//DTD SVG 1.1//EN" "http://www.w3.org/Graphics/SVG/1.1/DTD/svg11.dtd">
<!-- Creator: CorelDRAW 2021 (64-Bit) -->
<svg xmlns="http://www.w3.org/2000/svg" xml:space="preserve" width="33.1893mm" height="46.7585mm" version="1.1" style="shape-rendering:geometricPrecision; text-rendering:geometricPrecision; image-rendering:optimizeQuality; fill-rule:evenodd; clip-rule:evenodd"
viewBox="0 0 509.62 717.97"
 xmlns:xlink="http://www.w3.org/1999/xlink"
 xmlns:xodm="http://www.corel.com/coreldraw/odm/2003">
 <defs>
  <style type="text/css">
   <![CDATA[
    .str0 {stroke:#FEFEFE;stroke-width:4.06;stroke-miterlimit:22.9256}
    .fil2 {fill:none}
    .fil3 {fill:#EBECEC}
    .fil0 {fill:#20245B}
    .fil5 {fill:#FEFEFE;fill-rule:nonzero}
    .fil1 {fill:#D6BF96;fill-rule:nonzero}
    .fil4 {fill:#D6BF96;fill-rule:nonzero}
   ]]>
  </style>
    <clipPath id="id0">
     <path d="M509.26 463.34c0,140.63 -114,254.63 -254.63,254.63 -140.63,0 -254.63,-114 -254.63,-254.63 0,-69.5 0,-139.14 0,-208.71 0,-140.63 114,-254.63 254.63,-254.63 140.63,0 254.63,114 254.63,254.63 0,69.57 0,139.16 0,208.71z"/>
    </clipPath>
    <clipPath id="id1">
     <path d="M435.12 440.07c-2.18,111.39 -68.59,201.17 -177.85,201.17 -109.27,0 -177.86,-91.91 -177.86,-201.17 0,-54 0,-108.11 0,-162.17 0,-109.27 68.59,-202.84 177.86,-202.84 109.27,0 177.85,93.57 177.85,202.84 0,54.05 1.6,80.53 0,162.17z"/>
    </clipPath>
     <clipPath id="id2">
      <path d="M435.12 440.07c-2.18,111.39 -68.59,201.17 -177.85,201.17 -109.27,0 -177.86,-91.91 -177.86,-201.17 0,-54 0,-108.11 0,-162.17 0,-109.27 68.59,-202.84 177.86,-202.84 109.27,0 177.85,93.57 177.85,202.84 0,54.05 1.6,80.53 0,162.17z"/>
     </clipPath>
     <clipPath id="id3">
      <path d="M435.12 440.07c-2.18,111.39 -68.59,201.17 -177.85,201.17 -109.27,0 -177.86,-91.91 -177.86,-201.17 0,-54 0,-108.11 0,-162.17 0,-109.27 68.59,-202.84 177.86,-202.84 109.27,0 177.85,93.57 177.85,202.84 0,54.05 1.6,80.53 0,162.17z"/>
     </clipPath>
 </defs>
 <g id="Слой_x0020_1">
  <metadata id="CorelCorpID_0Corel-Layer"/>
  <g id="_3019472297344">
   <path class="fil0" d="M509.26 463.34c0,140.63 -114,254.63 -254.63,254.63 -140.63,0 -254.63,-114 -254.63,-254.63 0,-69.5 0,-139.14 0,-208.71 0,-140.63 114,-254.63 254.63,-254.63 140.63,0 254.63,114 254.63,254.63 0,69.57 0,139.16 0,208.71z"/>
   <g style="clip-path:url(#id0)">
    <g>
     <g>
      <path id="_1" class="fil1" d="M348.66 656.05c-0.61,-2.24 0.25,-4.76 2.9,-5.8 5.08,-1.99 12.95,1.56 19.37,0.26 6.15,-1.36 9.71,-6.26 5.59,-12.1 0.51,3.26 -2.42,4.88 -5.11,5.58 -5.28,1.28 -11.45,-0.65 -16.84,1.41 -2.97,1.05 -5.81,3.12 -6.85,6.65 -0.41,2.36 1.22,4.71 0.94,4.01z"/>
      <path class="fil1" d="M351.46 666.09c-0.61,-2.24 0.25,-4.76 2.9,-5.8 5.08,-2 12.95,1.56 19.37,0.26 6.15,-1.36 9.71,-6.26 5.59,-12.1 0.51,3.26 -2.42,4.88 -5.11,5.58 -5.28,1.28 -11.45,-0.65 -16.84,1.41 -2.97,1.05 -5.81,3.12 -6.85,6.65 -0.41,2.36 1.22,4.71 0.94,4z"/>
     </g>
    </g>
   </g>
   <path class="fil2" d="M509.26 463.34c0,140.63 -114,254.63 -254.63,254.63 -140.63,0 -254.63,-114 -254.63,-254.63 0,-69.5 0,-139.14 0,-208.71 0,-140.63 114,-254.63 254.63,-254.63 140.63,0 254.63,114 254.63,254.63 0,69.57 0,139.16 0,208.71z"/>
   <path class="fil3" d="M435.12 440.07c-2.18,111.39 -68.59,201.17 -177.85,201.17 -109.27,0 -177.86,-91.91 -177.86,-201.17 0,-54 0,-108.11 0,-162.17 0,-109.27 68.59,-202.84 177.86,-202.84 109.27,0 177.85,93.57 177.85,202.84 0,54.05 1.6,80.53 0,162.17z"/>
   <g style="clip-path:url(#id1)">
    <g>
    </g>
    <g style="clip-path:url(#id2)">
     <image x="-68.39" y="67.46" width="910.98" height="683.23" xlink:href="овал-значок логотипа_Images\овал-значок логотипа_ImgID1.png"/>
    </g>
    <g style="clip-path:url(#id3)">
    </g>
   </g>
   <path class="fil2 str0" d="M435.12 440.07c-2.18,111.39 -68.59,201.17 -177.85,201.17 -109.27,0 -177.86,-91.91 -177.86,-201.17 0,-54 0,-108.11 0,-162.17 0,-109.27 68.59,-202.84 177.86,-202.84 109.27,0 177.85,93.57 177.85,202.84 0,54.05 1.6,80.53 0,162.17z"/>
   <path class="fil4" d="M46.81 153.42l4.62 -8.84c1.86,-3.56 3.71,-6.08 5.55,-7.55 1.85,-1.47 3.94,-2.3 6.26,-2.49 2.32,-0.21 4.56,0.26 6.68,1.37 2,1.05 3.55,2.48 4.68,4.3 1.13,1.82 1.7,3.94 1.75,6.35 2.01,-1.92 3.87,-3.23 5.6,-3.91 1.72,-0.7 3.52,-1 5.4,-0.9 1.87,0.09 3.7,0.6 5.47,1.52 3.6,1.88 5.97,4.79 7.08,8.73 1.11,3.94 0.52,8.12 -1.8,12.55l-6.44 12.32 -44.86 -23.45zm6.66 -2.09l14.37 7.51 1.34 -2.57c1.63,-3.12 2.54,-5.58 2.74,-7.35 0.18,-1.77 -0.12,-3.42 -0.92,-4.93 -0.8,-1.52 -1.97,-2.67 -3.49,-3.47 -2.05,-1.07 -4.04,-1.2 -5.97,-0.38 -1.92,0.84 -3.7,2.83 -5.35,5.97l-2.72 5.21zm18.87 9.86l17.25 9.01 2.91 -5.57c1.72,-3.28 2.65,-5.85 2.81,-7.72 0.16,-1.87 -0.21,-3.63 -1.09,-5.27 -0.88,-1.64 -2.11,-2.88 -3.69,-3.71 -2,-1.05 -4.09,-1.3 -6.26,-0.78 -2.16,0.53 -4.12,1.79 -5.86,3.78 -1.16,1.34 -2.74,3.91 -4.73,7.71l-1.33 2.54zm64.76 -49.28l-3.49 3.97 -29.19 -25.7 7.12 50.77 -0.75 0.86 -38 -33.44 3.35 -3.81 29.63 26.08 -7.41 -51.31 0.75 -0.86 38 33.44zm1.66 -62.88l45.98 31.72 -4.69 2.75 -15.23 -10.36 -18.93 11.11 1.64 18.33 -4.86 2.85 -4.99 -55.75 1.09 -0.64zm4.82 9.47l1.82 20.31 14.99 -8.79 -16.81 -11.51zm107.57 7.65l-5.46 0.74 -21.88 -36.6 -11.71 41.12 -5.46 0.74 15.12 -53.11 1.12 -0.15 28.27 47.27zm36.3 -47.93l16.46 53.38 -5.39 -0.74 -5.54 -17.56 -21.74 -3.01 -10.07 15.4 -5.59 -0.77 30.61 -46.87 1.26 0.17zm-2.08 10.42l-11.15 17.07 17.21 2.38 -6.06 -19.45zm25.72 45.97l17.99 -47.32 23.72 9.02 -1.75 4.61 -18.98 -7.22 -5.76 15.16 2.21 0.84c5.88,2.23 9.95,4.37 12.21,6.43 2.27,2.06 3.74,4.49 4.41,7.31 0.68,2.82 0.49,5.62 -0.55,8.36 -1.37,3.6 -3.92,6.25 -7.66,7.95 -3.74,1.7 -8.02,1.63 -12.84,-0.21l-12.99 -4.94zm13.41 -21l-6.91 18.19 5.79 2.2c3.44,1.31 6.08,1.92 7.93,1.86 1.86,-0.07 3.53,-0.63 5.01,-1.68 1.49,-1.05 2.56,-2.44 3.22,-4.18 0.84,-2.2 0.87,-4.31 0.11,-6.34 -0.77,-2.04 -2.06,-3.69 -3.88,-4.93 -1.82,-1.24 -4.7,-2.62 -8.64,-4.12l-2.63 -1zm76.32 11.08c5.88,4.91 9.16,10.99 9.85,18.22 0.68,7.23 -1.37,13.72 -6.16,19.46 -4.75,5.69 -10.75,8.87 -18.01,9.53 -7.27,0.65 -13.74,-1.39 -19.43,-6.14 -5.76,-4.8 -8.97,-10.84 -9.64,-18.08 -0.67,-7.25 1.33,-13.68 6.01,-19.28 3.12,-3.73 6.9,-6.44 11.37,-8.12 4.46,-1.68 9.01,-2.12 13.64,-1.32 4.62,0.79 8.74,2.71 12.37,5.74zm-2.99 3.93c-2.87,-2.4 -6.22,-3.92 -10.05,-4.58 -3.82,-0.65 -7.51,-0.32 -11.08,1.01 -3.57,1.34 -6.64,3.56 -9.25,6.68 -3.85,4.61 -5.5,9.84 -4.95,15.69 0.54,5.86 3.08,10.67 7.59,14.43 3.02,2.52 6.42,4.12 10.2,4.8 3.79,0.68 7.47,0.35 11.02,-0.98 3.55,-1.34 6.62,-3.55 9.21,-6.65 2.58,-3.08 4.18,-6.48 4.82,-10.16 0.64,-3.69 0.28,-7.37 -1.08,-11.05 -1.36,-3.67 -3.5,-6.73 -6.43,-9.18zm30.81 31.77l4.02 -2.87 16.09 22.55 -4.02 2.87 -6.55 -9.18 -37.19 26.54 -2.99 -4.19 37.19 -26.54 -6.55 -9.18zm27.98 31.78l13.34 25.72 -4.38 2.27 -11.01 -21.21 -14.08 7.31 10.91 21.03 -4.38 2.27 -10.91 -21.03 -17.71 9.19 10.91 21.03 -4.38 2.27 -13.25 -25.53 44.93 -23.31z"/>
   <g>
    <path class="fil1" d="M370.95 76.24c1.39,-1.86 3.91,-2.73 6.36,-1.28 4.7,2.78 6.73,11.17 11.7,15.43 4.85,4.01 10.91,3.81 12.98,-3.03 -2.26,2.41 -5.33,1.09 -7.54,-0.61 -4.25,-3.38 -6.52,-9.43 -11.46,-12.41 -2.66,-1.7 -6.03,-2.66 -9.46,-1.31 -2.11,1.12 -2.97,3.86 -2.58,3.2z"/>
    <path class="fil1" d="M364.75 84.61c1.39,-1.86 3.91,-2.73 6.36,-1.28 4.7,2.78 6.73,11.17 11.7,15.43 4.85,4.01 10.91,3.81 12.98,-3.03 -2.26,2.41 -5.33,1.09 -7.54,-0.61 -4.25,-3.38 -6.53,-9.43 -11.46,-12.41 -2.66,-1.7 -6.03,-2.66 -9.45,-1.31 -2.12,1.12 -2.97,3.86 -2.58,3.2z"/>
   </g>
   <path class="fil5" d="M90.3 558.34l3.18 4.5 -22.28 36.35 41.85 -8.7 3.18 4.5 -54.06 11.24 -0.65 -0.92 28.77 -46.97zm35.77 43.76l3.68 3.5 -34.89 36.68 -3.68 -3.5 34.89 -36.68zm33.3 25.15l-7.31 55.38 -4.59 -2.93 2.29 -18.27 -18.51 -11.8 -15.57 9.8 -4.76 -3.03 47.37 -29.83 1.07 0.68zm-6.24 8.6l-17.25 10.86 14.65 9.34 2.6 -20.21zm49.55 11.15l4.95 1.14 -10.23 44.52 19.03 4.37 -1.1 4.81 -23.98 -5.51 11.33 -49.33zm55.91 7.13l22.47 51.14 -5.44 -0.12 -7.52 -16.81 -21.95 -0.5 -8.23 16.46 -5.64 -0.13 25.04 -50.07 1.27 0.03zm-0.87 10.59l-9.12 18.23 17.37 0.39 -8.25 -18.63zm33.83 -13.44l9.72 -2.24c3.92,-0.9 7.03,-1.14 9.34,-0.7 2.32,0.44 4.31,1.49 5.97,3.13 1.67,1.63 2.77,3.63 3.3,5.97 0.51,2.2 0.43,4.31 -0.22,6.36 -0.65,2.04 -1.88,3.86 -3.68,5.46 2.77,0.28 4.97,0.84 6.61,1.71 1.65,0.85 3.05,2.02 4.2,3.52 1.15,1.48 1.96,3.2 2.4,5.15 0.92,3.96 0.25,7.65 -2.02,11.05 -2.26,3.4 -5.83,5.67 -10.71,6.8l-13.55 3.12 -11.38 -49.32zm5.92 3.7l3.65 15.8 2.83 -0.65c3.43,-0.79 5.89,-1.7 7.36,-2.7 1.47,-1.01 2.52,-2.32 3.14,-3.91 0.63,-1.59 0.75,-3.24 0.36,-4.91 -0.52,-2.26 -1.72,-3.85 -3.6,-4.78 -1.89,-0.92 -4.56,-0.97 -8.01,-0.18l-5.72 1.32zm4.79 20.75l4.37 18.96 6.13 -1.41c3.61,-0.83 6.17,-1.8 7.69,-2.88 1.52,-1.1 2.61,-2.52 3.29,-4.25 0.67,-1.74 0.81,-3.48 0.41,-5.22 -0.51,-2.2 -1.67,-3.96 -3.48,-5.26 -1.81,-1.29 -4.04,-1.96 -6.68,-1.99 -1.77,-0.01 -4.75,0.46 -8.93,1.42l-2.79 0.64zm48.22 -47.18c6.65,-3.8 13.49,-4.76 20.51,-2.89 7.02,1.88 12.39,6.06 16.1,12.55 3.68,6.44 4.57,13.17 2.66,20.2 -1.92,7.04 -6.08,12.4 -12.52,16.08 -6.51,3.72 -13.28,4.63 -20.31,2.73 -7.03,-1.9 -12.36,-6.01 -15.98,-12.34 -2.42,-4.22 -3.63,-8.71 -3.65,-13.49 -0.02,-4.77 1.15,-9.19 3.51,-13.24 2.35,-4.05 5.58,-7.26 9.68,-9.6zm2.64 4.17c-3.24,1.85 -5.84,4.46 -7.79,7.82 -1.94,3.36 -2.91,6.93 -2.92,10.74 0.01,3.81 1.02,7.47 3.04,11 2.98,5.21 7.3,8.59 12.98,10.11 5.68,1.53 11.07,0.83 16.17,-2.09 3.42,-1.95 6.1,-4.58 8.05,-7.89 1.96,-3.32 2.93,-6.88 2.91,-10.67 -0.02,-3.79 -1.02,-7.44 -3.03,-10.95 -1.99,-3.49 -4.61,-6.17 -7.84,-8.06 -3.23,-1.89 -6.82,-2.83 -10.73,-2.84 -3.92,-0.01 -7.53,0.94 -10.85,2.83zm30.14 -18.08l-3.41 -3.57 20.02 -19.16 3.41 3.57 -8.15 7.8 31.59 33.01 -3.72 3.56 -31.58 -33.01 -8.15 7.8zm23.79 -32.31l16.78 -23.62 4.02 2.86 -13.84 19.49 12.93 9.19 13.72 -19.31 4.02 2.86 -13.72 19.31 16.27 11.55 13.72 -19.31 4.02 2.86 -16.66 23.45 -41.27 -29.31z"/>
   <line class="fil2 str0" x1="1.79" y1="324.87" x2="78.56" y2= "324.87" />
   <line class="fil2 str0" x1="1.79" y1="385.99" x2="78.56" y2= "385.99" />
   <line class="fil2 str0" x1="432.85" y1="324.87" x2="509.62" y2= "324.87" />
   <line class="fil2 str0" x1="432.85" y1="385.99" x2="509.62" y2= "385.99" />
   <path class="fil5" d="M16.17 348.49l-3.2 0c0.09,-3.29 1.18,-5.98 3.28,-8.09 2.1,-2.11 4.69,-3.16 7.78,-3.16 3.05,0 5.52,0.99 7.41,2.97 1.89,1.98 2.83,4.31 2.83,6.99 0,1.89 -0.45,3.66 -1.36,5.31 -0.9,1.65 -2.66,3.89 -5.26,6.71l-8.3 8.96 15.38 0 0 3.15 -22.56 0 12.68 -13.69c2.57,-2.77 4.24,-4.82 5.02,-6.16 0.77,-1.34 1.16,-2.74 1.16,-4.22 0,-1.88 -0.69,-3.49 -2.08,-4.84 -1.39,-1.35 -3.09,-2.03 -5.1,-2.03 -2.12,0 -3.88,0.71 -5.28,2.13 -1.41,1.42 -2.21,3.41 -2.4,5.98zm21.78 6.22c0,-4.39 0.47,-7.78 1.41,-10.17 0.94,-2.4 2.27,-4.22 3.99,-5.45 1.72,-1.24 3.64,-1.85 5.77,-1.85 2.15,0 4.11,0.62 5.85,1.87 1.74,1.24 3.13,3.1 4.15,5.59 1.02,2.49 1.53,5.83 1.53,10.01 0,4.18 -0.5,7.51 -1.51,9.98 -1,2.47 -2.39,4.33 -4.15,5.59 -1.76,1.26 -3.72,1.89 -5.88,1.89 -2.13,0 -4.04,-0.61 -5.74,-1.83 -1.71,-1.22 -3.03,-3.04 -3.99,-5.46 -0.96,-2.42 -1.44,-5.81 -1.44,-10.17zm3.15 0.06c0,3.75 0.33,6.59 1,8.52 0.67,1.92 1.67,3.38 2.98,4.38 1.31,0.99 2.69,1.49 4.16,1.49 1.47,0 2.86,-0.49 4.14,-1.46 1.28,-0.97 2.25,-2.43 2.92,-4.38 0.83,-2.36 1.24,-5.21 1.24,-8.55 0,-3.35 -0.37,-6.08 -1.11,-8.22 -0.73,-2.13 -1.76,-3.69 -3.06,-4.68 -1.3,-0.99 -2.68,-1.48 -4.12,-1.48 -1.48,0 -2.87,0.49 -4.16,1.48 -1.3,0.99 -2.29,2.44 -2.97,4.36 -0.68,1.92 -1.02,4.77 -1.02,8.54z"/>
   <path class="fil5" d="M453.47 348.49l-3.2 0c0.09,-3.29 1.18,-5.98 3.28,-8.09 2.1,-2.11 4.69,-3.16 7.78,-3.16 3.05,0 5.52,0.99 7.41,2.97 1.89,1.98 2.83,4.31 2.83,6.99 0,1.89 -0.45,3.66 -1.36,5.31 -0.9,1.65 -2.66,3.89 -5.26,6.71l-8.3 8.96 15.38 0 0 3.15 -22.56 0 12.68 -13.69c2.57,-2.77 4.24,-4.82 5.02,-6.16 0.77,-1.34 1.16,-2.74 1.16,-4.22 0,-1.88 -0.69,-3.49 -2.08,-4.84 -1.39,-1.35 -3.09,-2.03 -5.1,-2.03 -2.12,0 -3.88,0.71 -5.28,2.13 -1.41,1.42 -2.21,3.41 -2.4,5.98zm25.67 0l-3.2 0c0.09,-3.29 1.18,-5.98 3.28,-8.09 2.1,-2.11 4.69,-3.16 7.78,-3.16 3.05,0 5.52,0.99 7.41,2.97 1.89,1.98 2.83,4.31 2.83,6.99 0,1.89 -0.45,3.66 -1.36,5.31 -0.9,1.65 -2.66,3.89 -5.26,6.71l-8.3 8.96 15.38 0 0 3.15 -22.56 0 12.68 -13.69c2.57,-2.77 4.24,-4.82 5.02,-6.16 0.77,-1.34 1.16,-2.74 1.16,-4.22 0,-1.88 -0.69,-3.49 -2.08,-4.84 -1.39,-1.35 -3.09,-2.03 -5.1,-2.03 -2.12,0 -3.88,0.71 -5.28,2.13 -1.41,1.42 -2.21,3.41 -2.4,5.98z"/>
  </g>
 </g>
</svg>
